<svg id="Layer_1" data-name="Layer 1" xmlns="http://www.w3.org/2000/svg" viewBox="0 0 576 208.13"><defs><style>.cls-2{clip-path:url(#clip-path)}</style><clipPath id="clip-path"><path fill="none" d="M0 0h576v208.13H0z"/></clipPath></defs><g class="cls-2" id="Logo_Dematic_CMYK"><g class="cls-2"><path d="M123.55 138.15v56.69h14.88s8.23-.09 13-2.29 12.23-7.27 12.23-24.6c0-18.2-4.35-23.86-13.4-28-4.65-2.1-12.88-1.85-12.88-1.85zm-14-11.52h35.87s10.82.82 18 6 14.29 14.84 14.29 34.07-8.32 30-16.2 34.8-16.87 4.92-20.7 4.92h-31.26z" fill-rule="evenodd" fill="#231f20"/><path d="M186.72 126.63h57.37v12.25h-43.52v20.64h40.28v11.38h-40.28v23.27h44.25v12.2h-58.1v-79.74zm70.04 0h18.99l21.58 62.71 21.05-62.71h18.79v79.74h-13.12v-61.83l-21.58 61.83h-10.96l-21.88-61.68v61.68h-12.87v-79.74zm134.3 48.02l-12.29-34.8-12.21 34.8zm-19.29-48h14.59L417 206.37h-14.75l-7.5-21.22h-31.88l-7.45 21.22H341zm34.98-.02h64.65v12.25H446v67.49h-14.14v-67.49h-25.11v-12.25zm73.71 0h14.15v79.74h-14.15zm85.77 19.79a27.23 27.23 0 0 0-12.69-9.08c-7.65-2.4-17-1.54-23.31 4.42s-8.77 14.83-9.05 22.54 1.46 19.52 7.72 25.77a22.29 22.29 0 0 0 19.24 6.53 29.4 29.4 0 0 0 15-6.73 23.3 23.3 0 0 0 3.73-4l9.14 7s-1.9 3.2-7.2 7.56c-4.38 3.61-13.17 7.73-23.11 7.71-10.64 0-19.42-3.23-26.28-10.05s-12.61-17.91-12.08-32.74 6.42-25 12.38-30.69 14.49-9.7 25.55-9.76c10.68-.07 17.6 3.07 22.61 6.59a29.9 29.9 0 0 1 8 8z" fill="#231f20"/><path fill="#fdbb30" d="M0 0h27.75v208.13H0z"/></g></g></svg>